/* XPM */
static char *_515340386180[] = {
/* columns rows colors chars-per-pixel */
"64 64 227 2 ",
"   c #808000",
".  c #818100",
"X  c #808001",
"o  c #818101",
"O  c #808002",
"+  c #818102",
"@  c #818103",
"#  c #828203",
"$  c #828204",
"%  c #828205",
"&  c #838305",
"*  c #828206",
"=  c #838306",
"-  c #838307",
";  c #848408",
":  c #848409",
">  c #85850A",
",  c #85850B",
"<  c #86860B",
"1  c #86860C",
"2  c #86860D",
"3  c #87870D",
"4  c #87870E",
"5  c #87870F",
"6  c #88880F",
"7  c #888810",
"8  c #888811",
"9  c #898911",
"0  c #898912",
"q  c #898913",
"w  c #8A8A13",
"e  c #8A8A14",
"r  c #8A8A15",
"t  c #8B8B15",
"y  c #8B8B16",
"u  c #8B8B17",
"i  c #8C8C18",
"p  c #8C8C19",
"a  c #8D8D1A",
"s  c #8D8D1B",
"d  c #8E8E1C",
"f  c #8F8F1E",
"g  c #8F8F1F",
"h  c #909020",
"j  c #909021",
"k  c #919121",
"l  c #919123",
"z  c #929224",
"x  c #929225",
"c  c #939326",
"v  c #939327",
"b  c #949428",
"n  c #949429",
"m  c #959529",
"M  c #95952B",
"N  c #96962C",
"B  c #97972E",
"V  c #989830",
"C  c #989831",
"Z  c #999932",
"A  c #9A9A34",
"S  c #9A9A35",
"D  c #9B9B36",
"F  c #9B9B37",
"G  c #9C9C38",
"H  c #9C9C39",
"J  c #9D9D3A",
"K  c #9E9E3C",
"L  c #9F9F3F",
"P  c #A0A040",
"I  c #A0A041",
"U  c #A1A141",
"Y  c #A1A143",
"T  c #A2A244",
"R  c #A2A245",
"E  c #A3A346",
"W  c #A3A347",
"Q  c #A4A448",
"!  c #A4A449",
"~  c #A6A64C",
"^  c #A6A64D",
"/  c #A7A74E",
"(  c #A7A74F",
")  c #A8A850",
"_  c #A8A851",
"`  c #A9A952",
"'  c #AAAA52",
"]  c #AAAA54",
"[  c #ABAB56",
"{  c #ABAB57",
"}  c #ACAC58",
"|  c #ACAC59",
" . c #ADAD5A",
".. c #ADAD5B",
"X. c #AEAE5C",
"o. c #AEAE5D",
"O. c #AFAF5E",
"+. c #AFAF5F",
"@. c #B0B060",
"#. c #B0B061",
"$. c #B1B162",
"%. c #B1B163",
"&. c #B2B264",
"*. c #B2B265",
"=. c #B3B366",
"-. c #B3B367",
";. c #B5B56A",
":. c #B5B56B",
">. c #B7B76F",
",. c #B8B870",
"<. c #B8B871",
"1. c #BABA74",
"2. c #BABA75",
"3. c #BBBB76",
"4. c #BBBB77",
"5. c #BDBD79",
"6. c #BDBD7A",
"7. c #BDBD7B",
"8. c #BEBE7C",
"9. c #BEBE7D",
"0. c #BFBF7E",
"q. c #BFBF7F",
"w. c #C0C081",
"e. c #C1C183",
"r. c #C3C386",
"t. c #C3C387",
"y. c #C4C488",
"u. c #C4C489",
"i. c #C5C58A",
"p. c #C5C58B",
"a. c #C6C68C",
"s. c #C6C68D",
"d. c #C7C78E",
"f. c #C7C78F",
"g. c #C8C891",
"h. c #C9C992",
"j. c #C9C993",
"k. c #CACA94",
"l. c #CACA95",
"z. c #CBCB96",
"x. c #CBCB97",
"c. c #CCCC97",
"v. c #CCCC99",
"b. c #CDCD9A",
"n. c #CECE9C",
"m. c #CECE9D",
"M. c #CFCF9E",
"N. c #CFCF9F",
"B. c #D0D0A0",
"V. c #D0D0A1",
"C. c #D1D1A2",
"Z. c #D1D1A3",
"A. c #D2D2A4",
"S. c #D3D3A6",
"D. c #D3D3A7",
"F. c #D4D4A8",
"G. c #D4D4A9",
"H. c #D5D5AA",
"J. c #D6D6AC",
"K. c #D6D6AD",
"L. c #D7D7AE",
"P. c #D7D7AF",
"I. c #D8D8B0",
"U. c #D8D8B1",
"Y. c #D9D9B2",
"T. c #DADAB5",
"R. c #DBDBB6",
"E. c #DBDBB7",
"W. c #DCDCB9",
"Q. c #DDDDBB",
"!. c #DEDEBC",
"~. c #DEDEBD",
"^. c #E0E0C0",
"/. c #E0E0C1",
"(. c #E1E1C2",
"). c #E1E1C3",
"_. c #E2E2C4",
"`. c #E2E2C5",
"'. c #E3E3C7",
"]. c #E3E3C8",
"[. c #E4E4C8",
"{. c #E4E4C9",
"}. c #E5E5CA",
"|. c #E6E6CC",
" X c #E7E7CE",
".X c #E7E7CF",
"XX c #E8E8D1",
"oX c #E9E9D3",
"OX c #EAEAD4",
"+X c #EAEAD5",
"@X c #EBEBD6",
"#X c #EBEBD7",
"$X c #ECECD7",
"%X c #ECECD8",
"&X c #ECECD9",
"*X c #EDEDDA",
"=X c #EEEEDC",
"-X c #F0F0E0",
";X c #F0F0E1",
":X c #F1F1E2",
">X c #F1F1E3",
",X c #F2F2E4",
"<X c #F2F2E5",
"1X c #F3F3E7",
"2X c #F4F4E8",
"3X c #F4F4E9",
"4X c #F5F5EA",
"5X c #F5F5EB",
"6X c #F6F6EC",
"7X c #F6F6ED",
"8X c #F7F7EE",
"9X c #F7F7EF",
"0X c #F8F8F0",
"qX c #F9F9F2",
"wX c #F9F9F3",
"eX c #FAFAF4",
"rX c #FAFAF5",
"tX c #FBFBF6",
"yX c #FBFBF7",
"uX c #FCFCF9",
"iX c #FDFDFA",
"pX c #FDFDFB",
"aX c #FEFEFC",
"sX c #FEFEFD",
"dX c #FFFFFE",
"fX c white",
"gX c None",
/* pixels */
"gXgXgXgXgXgXgXgXgXgXgXgXgXgXgXgXgXgXgXgXgXgXgXgXgXgXgX                      gXgXgXgXgXgXgXgXgXgXgXgXgXgXgXgXgXgXgXgXgXgXgXgXgXgX",
"gXgXgXgXgXgXgXgXgXgXgXgXgXgXgXgXgXgXgXgXgXgXgXgX                                    gXgXgXgXgXgXgXgXgXgXgXgXgXgXgXgXgXgXgXgXgXgX",
"gXgXgXgXgXgXgXgXgXgXgXgXgXgXgXgXgXgXgXgXgX                                                gXgXgXgXgXgXgXgXgXgXgXgXgXgXgXgXgXgXgX",
"gXgXgXgXgXgXgXgXgXgXgXgXgXgXgXgXgXgXgX                    u N ! &.O.T n 4                     gXgXgXgXgXgXgXgXgXgXgXgXgXgXgXgXgX",
"gXgXgXgXgXgXgXgXgXgXgXgXgXgXgXgXgX              = T N.*XeXfXfXfXfXfXfXfXfXeXXXt.D                 gXgXgXgXgXgXgXgXgXgXgXgXgXgXgX",
"gXgXgXgXgXgXgXgXgXgXgXgXgXgXgXgX            ^ C.9XfXfXfXfXfXfXfXfXfXfXfXfXfXfXfXfX-Xg.J             gXgXgXgXgXgXgXgXgXgXgXgXgXgX",
"gXgXgXgXgXgXgXgXgXgXgXgXgXgX            U .XfXfXfXfXfXfXfXfXfXfXfXfXfXfXfXfXfXfXfXfXfXfXT.n             gXgXgXgXgXgXgXgXgXgXgXgX",
"gXgXgXgXgXgXgXgXgXgXgXgXgX          c L.fXfXfXfXfXfXfXfXfXfXfXfXfXfXfXfXfXfXfXfXfXfXfXfXfXuXg.u           gXgXgXgXgXgXgXgXgXgXgX",
"gXgXgXgXgXgXgXgXgXgXgXgX          9.uXfXfXfXfXfXfXfXfXfXfXfXfXfXfXfXfXfXfXfXfXfXfXfXfXfXfXfXfX8X..          gXgXgXgXgXgXgXgXgXgX",
"gXgXgXgXgXgXgXgXgXgXgX        ; H.fXfXU.t.t.t.t.t.t.t.t.t.t.t.t.t.t.t.t.t.t.t.t.t.t.t.t.t.t.t.t.8Xe.          gXgXgXgXgXgXgXgXgX",
"gXgXgXgXgXgXgXgXgXgX        u [.fXfXfXv.                                                        g.fXH.-         gXgXgXgXgXgXgXgX",
"gXgXgXgXgXgXgXgXgX        N -XfXfXfXfXeX_ V 4                                                   c fXfX[.u         gXgXgXgXgXgXgX",
"gXgXgXgXgXgXgXgX        s 2XfXfXfXfXfXfXfXfXfX'._                 C.-X8X8X9X8X>X%X'.v.O.=         W.fXfX'.=       gXgXgXgXgXgXgX",
"gXgXgXgXgXgXgXgX      = '.fXfXfXfXfXfXfXfXfXfXfXfXO.              '.fXfXfXfXfXfXfXfXfXfX3X]       ^ fXfXfXv.        gXgXgXgXgXgX",
"gXgXgXgXgXgXgX        v.fXfXfXfXfXfXfXfXfXfXfXfXfXeXc             t.fXfXfXfXfXfXfXfXfXfXfXfXw.      *XfXfXfX&.        gXgXgXgXgX",
"gXgXgXgXgXgX        &.fXfXfXfXfXfXfXfXfXfXfXfXfXfXfXv.            n fXfXfXfXfXfXfXfXfXfXfXfXfX,.    &.fXfXfXuXJ       gXgXgXgXgX",
"gXgXgXgXgXgX      s eXfXfXfXfXfXfXfXfXfXfXfXfXfXfXfXeX4             '.fXfXfXfXfXfXfXfXfXfXfXfXfX_   - 2XfXfXfX*X=       gXgXgXgX",
"gXgXgXgXgX        k.fXfXfXfXfXfXfXfXfXfXfXfXfXfXfXfXfX,.            &.fXfXfXfXfXfXfXfXfXfXfXfXfX2Xu   9.fXfXfXfX&.      gXgXgXgX",
"gXgXgXgXgX      h uXfX2XL.j.[.uXfXfXfXfXfXfXfXfXfXfXfX#X            5 yXfXfXfXfXfXfXfXfXfXfXfXfXfXH.  q eXfXfXfX>X;       gXgXgX",
"gXgXgXgX        N.a.f   ; ; = = U *XfXfXfXfXfXfXfXfXfXfXD             A.fXfXfXfXfXfXfXfXfXfXfXfXfXfXH..XuXfXfXfXfX1.        gXgX",
"gXgXgXgX      c ] ;             = ; T.fXfXfXfXfXfXfXfXfXk.            W fXfXfXfXfXfXfXfXfXfXfXfXfXfXfXfXfXfXfXfXfX8X5       gXgX",
"gXgXgXgX      u ;                   = a.fXfXfXfXfXfXfXfX9X=             -XfXfXfXfXfXfXfXfXfXfXfXfXfXfXfXfXfXfXfXfXfX&.      gXgX",
"gXgXgX        =                         #XfXfXfXfXfXfXfXfX]             t.fXfXfXfXfXfXfXfXfXfXfXfXfXfXfXfXfXfXfXfXfXU.      gXgX",
"gXgXgX                                = T fXfXfXfXfXfXfXfXW.            c fXfXfXfXfXfXfXfXfXfXfXfXeX>XeXfXfXfXfXfXfXeX;       gX",
"gXgXgX                                  = !.fXfXfXfXfXfXfXfXs             ].fXfXfXfXfXfXfXfXfXfXfXa.  ^ fXfXfXfXfXfXfX!       gX",
"gXgXgX                                    ] fXfXfXfXfXfXfXfX1.            &.fXfXfXfXfXfXfXfXfXfXfXL.  = 2XfXfXfXfXfXfXk.      gX",
"gXgX                                      h fXfXfXfXfXfXfXfX#X            4 eXfXfXfXfXfXfXfXfXfXfXT.    a.fXfXfXfXfXfXXX      gX",
"gXgX                                        uXfXfXfXfXfXfXfXfXH             A.fXfXfXfXfXfXfXfXfXuX..    N fXfXfXfXfXfX8X        ",
"gXgX                                        XXfXfXfXfXfXfXfXfXk.            V g.g.g.a.g.a.w.1.&.s         .XfXfXfXfXfXfX=       ",
"gXgX                                      = ).fXfXfXfXfXfXfXfX8X-                                         >.fXfXfXfXfXfXf       ",
"gXgX                                        9.H..XeXfXfXfXfXfXfX|                                         u uXfXfXfXfXfXD       ",
"gXgX      =                               =         s L &.i.L.#XU.            ; k.v.k.v.v.k.t.6.:.C         U.fXfXfXfXfX!       ",
"gXgX                                      4                     4 q             '.fXfXfXfXfXfXfXfXfX-XT     _ fXfXfXfXfX!       ",
"gXgX      .                                                   U =X1.            &.fXfXfXfXfXfXfXfXfXfXuX_   = 2XfXfXfXfXD       ",
"gXgX                                                      q C.fXfX#X            q eXfXfXfXfXfXfXfXfXfXfX8Xu   g.fXfXfXfXf       ",
"gXgX                                                    ..2XfXfXfXfXD             A.fXfXfXfXfXfXfXfXfXfXfXN.  C fXfXfXfX=       ",
"gX                                                  h E.fXfXfXfXfXfXv.            W fXfXfXfXfXfXfXfXfXfXfXfXC.C.uXfXfX8X        ",
"gX                                                <.eXfXfXfXfXfXfXfX9X;             >XfXfXfXfXfXfXfXfXfXfXfXfXfXfXfXfXXX      gX",
"                                              y ].fXfXfXfXfXfXfXfXfXfX]             i.fXfXfXfXfXfXfXfXfXfXfXfXfXfXfXfXk.      gX",
"            .                                 ; M *XfXfXfXfXfXfXfXfXfXE.            n fXfXfXfXfXfXfXfXfXfXfXfXfXfXfXfXT       gX",
"                                                  q ^.fXfXfXfXfXfXfXfXfXf             ].fXfXfXfXfXfXfXfXfXfXfXfXfXfXeX=       gX",
"                                                    y eXfXfXfXfXfXfXfXfX1.            :.fXfXfXfXfXfXfXfXfXfXfXfXfXfXU.      gXgX",
"                                                    - #.fXfXfXfXfXfXfXfXXX            4 eXfXfXfXfXfXfXfXfXfXfXfXfXfX#.      gXgX",
"gX        .                                           4 2XfXfXfXfXfXfXfXfXc             k.fXfXfXfXfXfXfXfXfXfXfXfX8X4       gXgX",
"gX        .                                           q W.fXfXfXfXfXfXfXfX6.            M fXfXfXfXfXfXfXfXfXfXfXfX1.      gXgXgX",
"gXgX                                                    t.fXfXfXfXfXfXfXfX!.              A.fXfXfXfXfXfXfXfXfXfX-X;       gXgXgX",
"gXgXgXgX                                                _ fXfXfXfXfXfXfXfX).              4 #XfXfXfXfXfXfXfXfXfX&.      gXgXgXgX",
"gXgXgXgXgX                                              6.fXfXfXfXfXfXfXeX]                 u i.2XfXfXfXfXfXfX#X=       gXgXgXgX",
"gXgXgXgXgX                                            6 U.fXfXfXfXeX>.U 5                       - C ^ ,.#XfXeXD       gXgXgXgXgX",
"gXgXgXgXgXgX                                          6 -XfXfXfXfXfXN                                   O.fX#.        gXgXgXgXgX",
"gXgXgXgXgXgX            .                             J fXfXfXfXfXfX!.9.w.9.9.w.9.w.9.w.w.9.9.9.w.9.9.w.i.j.        gXgXgXgXgXgX",
"gXgXgXgXgXgX  .           -                         q -XfXfXfXfXfXfXfXfXfXfXfXfXfXfXfXfXfXfXfXfXfXfXfXfX).=       gXgXgXgXgXgXgX",
"gXgXgXgXgXgXgX            s 6                     4 c.fXfXfXfXfXfXfXfXfXfXfXfXfXfXfXfXfXfXfXfXfXfXfXfX).q         gXgXgXgXgXgXgX",
"gXgXgXgXgXgXgXgX            6 q ;               q L.fXfXfXfXfXfXfXfXfXfXfXfXfXfXfXfXfXfXfXfXfXfXfXfXC.=         gXgXgXgXgXgXgXgX",
"gXgXgXgXgXgXgXgXgXgX          - L ; q ; 4 q ; ! 2XfXfXfXfXfXfXfXfXfXfXfXfXfXfXfXfXfXfXfXfXfXfXfXfX9.          gXgXgXgXgXgXgXgXgX",
"gXgXgXgXgXgXgXgXgXgXgXgX          4.$XS.C.#XfXfXfXfXfXfXfXfXfXfXfXfXfXfXfXfXfXfXfXfXfXfXfXfXfX8X_           gXgXgXgXgXgXgXgXgXgX",
"gXgXgXgXgXgXgXgXgXgXgXgXgX          h D.fXfXfXfXfXfXfXfXfXfXfXfXfXfXfXfXfXfXfXfXfXfXfXfXfXuXa.5           gXgXgXgXgXgXgXgXgXgXgX",
"gXgXgXgXgXgXgXgXgXgXgXgXgXgX            J '.fXfXfXfXfXfXfXfXfXfXfXfXfXfXfXfXfXfXfXfXfXfXL.h             gXgXgXgXgXgXgXgXgXgXgXgX",
"gXgXgXgXgXgXgXgXgXgXgXgXgXgXgXgX            T v.2XfXfXfXfXfXfXfXfXfXfXfXfXfXfXfXfX*Xi.V             gXgXgXgXgXgXgXgXgXgXgXgXgXgX",
"gXgXgXgXgXgXgXgXgXgXgXgXgXgXgXgXgX                U j.#X9XfXfXfXfXfXfXfXfX8X[.9.N                 gXgXgXgXgXgXgXgXgXgXgXgXgXgXgX",
"gXgXgXgXgXgXgXgXgXgXgXgXgXgXgXgXgXgXgX                    ; n I O.] L h =                     gXgXgXgXgXgXgXgXgXgXgXgXgXgXgXgXgX",
"gXgXgXgXgXgXgXgXgXgXgXgXgXgXgXgXgXgXgXgXgX                                                gXgXgXgXgXgXgXgXgXgXgXgXgXgXgXgXgXgXgX",
"gXgXgXgXgXgXgXgXgXgXgXgXgXgXgXgXgXgXgXgXgXgXgXgX                                    gXgXgXgXgXgXgXgXgXgXgXgXgXgXgXgXgXgXgXgXgXgX",
"gXgXgXgXgXgXgXgXgXgXgXgXgXgXgXgXgXgXgXgXgXgXgXgXgXgXgXgX                    gXgXgXgXgXgXgXgXgXgXgXgXgXgXgXgXgXgXgXgXgXgXgXgXgXgX"
};
