/* XPM */
static char *_515340040349[] = {
/* columns rows colors chars-per-pixel */
"16 16 96 2 ",
"   c #808000",
".  c #818100",
"X  c #808001",
"o  c #818101",
"O  c #818102",
"+  c #818103",
"@  c #828205",
"#  c #838306",
"$  c #838307",
"%  c #848408",
"&  c #848409",
"*  c #85850A",
"=  c #85850B",
"-  c #86860B",
";  c #86860C",
":  c #86860D",
">  c #87870E",
",  c #888811",
"<  c #898911",
"1  c #898912",
"2  c #898913",
"3  c #8A8A14",
"4  c #8B8B15",
"5  c #8B8B16",
"6  c #8B8B18",
"7  c #8C8C18",
"8  c #8D8D1A",
"9  c #8D8D1B",
"0  c #8E8E1C",
"q  c #8E8E1D",
"w  c #8F8F1E",
"e  c #909020",
"r  c #999933",
"t  c #9B9B37",
"y  c #9E9E3C",
"u  c #A0A040",
"i  c #A0A041",
"p  c #A1A142",
"a  c #A3A347",
"s  c #A4A448",
"d  c #A6A64D",
"f  c #A9A952",
"g  c #AAAA54",
"h  c #ABAB57",
"j  c #ABAB58",
"k  c #ACAC58",
"l  c #ADAD58",
"z  c #ADAD5A",
"x  c #AEAE5C",
"c  c #AFAF5D",
"v  c #B0B060",
"b  c #B0B061",
"n  c #B3B366",
"m  c #B4B469",
"M  c #B7B76E",
"N  c #BDBD7A",
"B  c #BDBD7B",
"V  c #BFBF7F",
"C  c #C0C080",
"Z  c #C5C589",
"A  c #C5C58B",
"S  c #C6C68C",
"D  c #C7C78E",
"F  c #CACA95",
"G  c #CDCD9A",
"H  c #CDCD9B",
"J  c #CFCF9D",
"K  c #CFCF9F",
"L  c #D0D0A0",
"P  c #D0D0A1",
"I  c #D7D7AE",
"U  c #D8D8B2",
"Y  c #DCDCB8",
"T  c #E0E0C0",
"R  c #E0E0C2",
"E  c #E1E1C3",
"W  c #E5E5CA",
"Q  c #E9E9D2",
"!  c #EAEAD5",
"~  c #EBEBD6",
"^  c #EBEBD7",
"/  c #ECECD9",
"(  c #F0F0E0",
")  c #F1F1E2",
"_  c #F1F1E3",
"`  c #F5F5EB",
"'  c #F8F8F1",
"]  c #F9F9F2",
"[  c #FAFAF5",
"{  c #FBFBF6",
"}  c #FDFDFA",
"|  c #FEFEFC",
" . c #FEFEFD",
".. c #FFFFFE",
"X. c white",
"o. c None",
/* pixels */
"o.o.o.o.o.o.> > = , = o.o.o.o.o.",
"o.o.o.o.= M E ` X.^ P 0 = o.o.o.",
"o.o.o.4 E C V V V C V B c > o.o.",
"o.o.= _ X.! p   S ! E f S v = o.",
"o.$ A U X.X.!   z X.X.} n ] 4 o.",
"o.= e   y } X.u % ] X.X.X.X.F $ ",
"o.,       J X.K   G X.X.M ] W , ",
"o.6       j E _ > 6 a r $ G [ > ",
"  ,       8   f k   / X.Q f ] = ",
"          = I X.E   B X.X._ W , ",
"            d X.X.0 0 } X.X.F   ",
"o.o         > ` X.f   A X.] 4 o.",
"o.    8     t X.Y p u p c g $ o.",
"o.o.  > s z E X.X.X.X.[ b > o.o.",
"o.o.o.o.= m Y ] X.! P 8 $ o.o.o.",
"o.o.o.o.o.o.= = $ >   o.o.o.o.o."
};
