/* XPM */
static char *_515340299507[] = {
/* columns rows colors chars-per-pixel */
"32 32 149 2 ",
"   c #7F7F00",
".  c #808000",
"X  c #818100",
"o  c #808001",
"O  c #818101",
"+  c #818102",
"@  c #818103",
"#  c #828203",
"$  c #828204",
"%  c #838306",
"&  c #838307",
"*  c #848407",
"=  c #848408",
"-  c #848409",
";  c #858509",
":  c #85850A",
">  c #86860D",
",  c #87870E",
"<  c #888810",
"1  c #888811",
"2  c #898913",
"3  c #8A8A15",
"4  c #8B8B15",
"5  c #8B8B16",
"6  c #8C8C17",
"7  c #8C8C18",
"8  c #8C8C19",
"9  c #8D8D19",
"0  c #8D8D1B",
"q  c #8E8E1A",
"w  c #8E8E1D",
"e  c #8F8F1E",
"r  c #8F8F1F",
"t  c #909020",
"y  c #929224",
"u  c #929225",
"i  c #939327",
"p  c #949428",
"a  c #949429",
"s  c #95952A",
"d  c #95952B",
"f  c #96962A",
"g  c #96962C",
"h  c #97972E",
"j  c #97972F",
"k  c #989830",
"l  c #989831",
"z  c #9B9B35",
"x  c #9B9B37",
"c  c #9C9C39",
"v  c #9D9D39",
"b  c #9D9D3A",
"n  c #A0A040",
"m  c #A0A041",
"M  c #A1A143",
"N  c #A3A346",
"B  c #A3A347",
"V  c #A4A449",
"C  c #A5A549",
"Z  c #A5A54A",
"A  c #A5A54B",
"S  c #A9A952",
"D  c #AAAA55",
"F  c #ABAB57",
"G  c #AEAE5C",
"H  c #AEAE5D",
"J  c #AFAF5E",
"K  c #B1B162",
"L  c #B1B163",
"P  c #B2B264",
"I  c #B4B468",
"U  c #B5B56A",
"Y  c #B5B56B",
"T  c #B7B76E",
"R  c #B8B871",
"E  c #B9B972",
"W  c #BDBD7A",
"Q  c #BDBD7B",
"!  c #BFBF7E",
"~  c #BFBF7F",
"^  c #C0C081",
"/  c #C1C183",
"(  c #C2C285",
")  c #C3C386",
"_  c #C4C488",
"`  c #C4C489",
"'  c #C5C589",
"]  c #C7C78E",
"[  c #C8C891",
"{  c #CBCB96",
"}  c #CBCB97",
"|  c #CCCC99",
" . c #CDCD9C",
".. c #CECE9D",
"X. c #CFCF9F",
"o. c #D0D0A1",
"O. c #D3D3A6",
"+. c #D5D5AA",
"@. c #D6D6AB",
"#. c #D6D6AC",
"$. c #D6D6AD",
"%. c #D8D8AF",
"&. c #D8D8B0",
"*. c #D9D9B2",
"=. c #D9D9B3",
"-. c #DADAB4",
";. c #DBDBB6",
":. c #DBDBB7",
">. c #DCDCB8",
",. c #DCDCB9",
"<. c #DDDDBB",
"1. c #DEDEBD",
"2. c #DFDFBF",
"3. c #E0E0C0",
"4. c #E1E1C2",
"5. c #E2E2C3",
"6. c #E2E2C4",
"7. c #E3E3C7",
"8. c #E5E5CB",
"9. c #E6E6CC",
"0. c #E6E6CE",
"q. c #E7E7CE",
"w. c #E7E7CF",
"e. c #E8E8D0",
"r. c #EAEAD5",
"t. c #EBEBD7",
"y. c #EDEDDA",
"u. c #EEEEDD",
"i. c #F0F0E0",
"p. c #F0F0E1",
"a. c #F1F1E3",
"s. c #F3F3E6",
"d. c #F3F3E7",
"f. c #F4F4E8",
"g. c #F5F5EA",
"h. c #F6F6EC",
"j. c #F8F8F1",
"k. c #FAFAF4",
"l. c #FBFBF6",
"z. c #FBFBF7",
"x. c #FCFCF8",
"c. c #FCFCF9",
"v. c #FDFDFA",
"b. c #FDFDFB",
"n. c #FEFEFC",
"m. c #FEFEFD",
"M. c #FFFFFE",
"N. c white",
"B. c None",
/* pixels */
"B.B.B.B.B.B.B.B.B.B.B.B.B.. . . . . . . B.B.B.B.B.B.B.B.B.B.B.B.",
"B.B.B.B.B.B.B.B.B.B.. . . . * w k w $ . . . . B.B.B.B.B.B.B.B.B.",
"B.B.B.B.B.B.B.B.. . . c ] u.N.N.N.N.N.t.) z . . . B.B.B.B.B.B.B.",
"B.B.B.B.B.B.B.. . j 5.N.N.N.N.N.N.N.N.N.N.N.<.s . . B.B.B.B.B.B.",
"B.B.B.B.B.B.. . ) g.2.2.2.2.2.2.2.2.2.2.2.2.2.2.Q . . B.B.B.B.B.",
"B.B.B.B.B.. = &.N.s.2 . . . . . . . .   . . . . $.o.$ . B.B.B.B.",
"B.B.B.B.. . &.N.N.N.N.9.P . . . G z.z.j.y.<.b . m N. .. . B.B.B.",
"B.B.B.. . ~ N.N.N.N.N.N.N.k . . k N.N.N.N.N.N.Q . 9.N.U . . B.B.",
"B.B.B.. t N.N.N.N.N.N.N.N.o.. . . 9.N.N.N.N.N.N.D G N.j.3 . B.B.",
"B.B.. .  .T m G 5.N.N.N.N.z.2   . T N.N.N.N.N.N.f.P N.N.| . . B.",
"B.B.. q t . . . 3 ~ N.N.N.N.U . . 3 x.N.N.N.N.N.N.N.N.N.c.q . B.",
"B.B.. 2 . . . .   2 5.N.N.N.7.. .   $.N.N.N.N.N.N.c.N.N.N.U . B.",
"B.. . $ . . . . . . c N.N.N.N.y . . A N.N.N.N.N.&.q c.N.N.:.  . ",
"B.. . . . . . . . . y N.N.N.N._ . . . s.N.N.N.N.X.. :.N.N.h.. . ",
"B.. $ . . . . . . . q f.N.N.N.p.. . . k B B c < . . S N.N.N.$ . ",
"B.. = . . . . . . . q Z R { <.p.B . . $ B B B n s . $ h.N.N.t . ",
"B.. , . . . . . . . - . . . . < U . . . 8.N.N.N.N.<.$ [ N.N.w . ",
"B.. . . . . . . . . = . . . D s.z., . . U N.N.N.N.N.' k N.N.$ . ",
". . . . . . . . . . . . w &.N.N.N.P . . 2 z.N.N.N.N.N.9.N.h.. . ",
". . . . . . . . . . . = %.N.N.N.N.6.. . . +.N.N.N.N.N.N.N.<.. . ",
". . . . . . . . . . . . 3 $.N.N.N.N.t . . Z N.N.N.N.N.N.N.U   B.",
". . . . . . . . . . . . . k N.N.N.N.~ . . . p.N.N.N.N.N.c.q . B.",
"B.. . . . . . . . . . . . = 9.N.N.N.9.. . . E N.N.N.N.N.| . . B.",
"B.B.. . . . . . . . . . . . +.N.N.c.+.. . . $ X.c.N.N.z.q . B.B.",
"B.B.B.. . . $ . . . . . . 6 s.N.N.t . . . . . . = s 9.P . . B.B.",
"B.B.B.. . . = . . . . . . Z N.N.N.9.2.2.2.2.2.2.2.2.' . . B.B.B.",
"B.B.B.B.. . * s . . . . z s.N.N.N.N.N.N.N.N.N.N.N.o.. . B.B.B.B.",
"B.B.B.B.B.B.. . Z F D ^ c.N.N.N.N.N.N.N.N.N.N.c.Q . . B.B.B.B.B.",
"B.B.B.B.B.B.B.. . j 5.N.N.N.N.N.N.N.N.N.N.N.:.s . . B.B.B.B.B.B.",
"B.B.B.B.B.B.B.B.. .   j ^ t.N.N.N.N.N.9.~ s . . . B.B.B.B.B.B.B.",
"B.B.B.B.B.B.B.B.B.B.. . . . . q j 6 . . . . . B.B.B.B.B.B.B.B.B.",
"B.B.B.B.B.B.B.B.B.B.B.B.B.. . .   . . . B.B.B.B.B.B.B.B.B.B.B.B."
};
